<svg width="26" height="30" viewBox="0 0 26 30" fill="none" xmlns="http://www.w3.org/2000/svg">
<path fill-rule="evenodd" clip-rule="evenodd" d="M22.8577 0.700439H2.66407C1.02243 0.700439 0.419556 1.30598 0.419556 2.94756V22.7561C0.419556 22.9419 0.426841 23.1147 0.441369 23.2745C0.477688 23.6331 0.484966 23.9802 0.819105 24.3752C0.855424 24.4144 1.18957 24.667 1.18957 24.667C1.37117 24.7571 1.50189 24.8231 1.70528 24.9066L11.6495 29.0828C12.1652 29.3202 12.3832 29.4124 12.7609 29.4052C13.1386 29.4124 13.3493 29.3202 13.865 29.0828L23.8165 24.9066C24.0199 24.8231 24.1434 24.7571 24.325 24.667C24.325 24.667 24.6665 24.4144 24.6955 24.3752C25.0296 23.9802 25.0368 23.6331 25.0732 23.2745C25.0949 23.1147 25.1022 22.9419 25.1022 22.7561V2.94756C25.1022 1.30598 24.4921 0.700439 22.8577 0.700439Z" fill="white"/>
<path d="M21.5065 20.6157L21.4993 20.6614V20.7115L21.4847 20.7573L21.4702 20.803L21.4629 20.8437L21.4484 20.8894L21.4339 20.9308L21.4121 20.9671L21.3975 21.0085L21.3757 21.0448L21.3539 21.0818L21.3249 21.1181L21.3031 21.1544L21.274 21.1864L21.245 21.2183L21.2159 21.2459L21.1796 21.2778L21.1506 21.3054L21.107 21.333L21.0779 21.3556L21.0416 21.3831L20.998 21.4056L20.9545 21.4238L20.9181 21.447L20.8673 21.4651L20.8237 21.4833L20.7801 21.4971L20.7365 21.5109L20.693 21.5247L20.6493 21.5334L20.6058 21.5429L20.5695 21.5516L20.5186 21.561L20.475 21.5653L20.4315 21.5704L20.3879 21.5748L20.337 21.5792L20.2934 21.5835H20.2499H20.199H20.1482H20.1046L20.061 21.5792H20.0101L19.9593 21.5748L19.9157 21.5704L19.8649 21.5653L19.8212 21.5567L19.7777 21.5516L19.7341 21.5429L19.6833 21.5334L19.6397 21.5247L19.5961 21.5153L19.5525 21.5015L19.509 21.4928L19.4653 21.479L19.4145 21.4651L19.3782 21.447L19.3346 21.4332L19.291 21.4194L19.2475 21.4013L19.2038 21.3831L19.1603 21.3642L19.1239 21.3417L19.0803 21.3236L19.0441 21.3011L19.0077 21.2778L18.9642 21.2554L18.9278 21.2321L18.8915 21.2096L18.8552 21.182L18.8188 21.1544L18.7826 21.1276L18.7462 21.1L18.7171 21.0724L18.6809 21.0404L18.7027 21.0041L18.7389 20.9722L18.768 20.9352L18.7971 20.8989L18.8261 20.8669L18.8479 20.8306L18.8843 20.7936L18.906 20.7616L18.9423 20.7253L18.9714 20.6934L19.0004 20.6564L19.0295 20.6201L19.0513 20.5881L19.0876 20.5518L19.1167 20.5148L19.1458 20.4828L19.1748 20.4465L19.2111 20.4741L19.2475 20.501L19.2837 20.5286L19.3274 20.5562L19.3636 20.5787L19.4072 20.6063L19.4435 20.6295L19.4799 20.6476L19.5162 20.6702L19.5598 20.6883L19.5961 20.7072L19.6397 20.7253L19.6833 20.7391L19.7195 20.7573L19.7704 20.7711L19.814 20.7849L19.8503 20.798L19.9011 20.8074L19.9448 20.8168L19.9883 20.8255L20.0392 20.8306L20.0827 20.8393H20.1336L20.1772 20.8437H20.2281H20.2789L20.3298 20.8393L20.3733 20.8306L20.4169 20.8212L20.4605 20.8117L20.4968 20.798L20.5259 20.7798L20.5622 20.7529L20.5913 20.7203L20.6058 20.6839L20.6203 20.6425L20.6275 20.5976V20.5881L20.6203 20.5329L20.6058 20.4872L20.5767 20.4552L20.5476 20.4284L20.5114 20.4008L20.475 20.3826L20.4315 20.3645L20.3879 20.3456L20.337 20.3231L20.3007 20.3136L20.2643 20.305L20.2281 20.2912L20.1844 20.2817L20.1409 20.2679L20.0973 20.2592L20.0465 20.2454L19.9956 20.236L19.952 20.2222L19.9011 20.2135L19.8576 20.1997L19.814 20.1902L19.7704 20.1772L19.7268 20.1634L19.6833 20.1539L19.6397 20.1402L19.5961 20.1263L19.5598 20.1126L19.509 20.0944L19.4653 20.0763L19.4145 20.0581L19.3709 20.04L19.3346 20.0167L19.2837 19.9942L19.2475 19.971L19.2111 19.9485L19.1748 19.9209L19.1385 19.8984L19.1021 19.8708L19.0731 19.8388L19.0441 19.8069L19.015 19.775L18.986 19.743L18.9642 19.7111L18.9423 19.674L18.9205 19.6334L18.8987 19.6014L18.8843 19.5651L18.877 19.5238L18.8625 19.4874L18.8479 19.4417L18.8406 19.4003L18.8334 19.3546V19.3088L18.8261 19.2588V19.2086V19.1992V19.1535L18.8334 19.1077V19.0671L18.8406 19.0213L18.8479 18.9799L18.8625 18.9385L18.877 18.8979L18.8843 18.8565L18.8987 18.8158L18.9205 18.7744L18.9351 18.7331L18.9569 18.6924L18.9787 18.651L19.0077 18.6147L19.0368 18.5777L19.0659 18.5414L19.1021 18.5094L19.1312 18.4732L19.1676 18.4405L19.1966 18.418L19.2329 18.3904L19.2692 18.3628L19.3055 18.3403L19.3492 18.3178L19.3927 18.2989L19.4291 18.2764L19.4726 18.2582L19.5162 18.2445L19.5598 18.2263L19.6034 18.2125L19.6397 18.2031L19.6833 18.1944L19.7195 18.1849L19.7704 18.1762L19.8067 18.1668L19.8503 18.1624L19.9011 18.1573L19.9448 18.153L19.9883 18.1486H20.0319H20.0827H20.1336H20.1844L20.2353 18.153L20.2861 18.1573H20.3298L20.3806 18.1624L20.4242 18.1711L20.475 18.1762L20.5186 18.1849L20.5622 18.1944L20.6058 18.2031L20.6493 18.2125L20.693 18.2212L20.7365 18.235L20.7801 18.2488L20.8237 18.2582L20.8673 18.2764L20.9036 18.2902L20.9472 18.3084L20.9907 18.3265L21.0344 18.3446L21.0779 18.3679L21.107 18.386L21.1506 18.4085L21.1941 18.4318L21.2305 18.4543L21.2668 18.4819L21.3031 18.5051L21.3395 18.532L21.3757 18.5596L21.4121 18.5871L21.3903 18.6235L21.3612 18.6605L21.3395 18.6968L21.3104 18.7331L21.2813 18.7744L21.2595 18.8108L21.2305 18.8478L21.2087 18.8841L21.1869 18.9204L21.1579 18.9574L21.1288 18.9937L21.107 19.03L21.0779 19.0714L21.0489 19.1077L21.0271 19.1447L21.0053 19.181L20.9763 19.2174L20.9399 19.1905L20.8963 19.1672L20.86 19.1447L20.8237 19.1172L20.7874 19.099L20.751 19.0758L20.7075 19.0576L20.6712 19.0395L20.6275 19.0213L20.5913 19.0031L20.5549 18.9894L20.5186 18.9705L20.4677 18.9574L20.4242 18.9436L20.3733 18.9299L20.3298 18.9204L20.2861 18.9117L20.2426 18.9022L20.1917 18.8979L20.1482 18.8935L20.1046 18.8885H20.061H20.0101L19.9593 18.8979L19.9157 18.9066L19.8721 18.916L19.8358 18.9342L19.8067 18.9523L19.7632 18.9894L19.7341 19.03L19.7195 19.0714L19.7124 19.1172V19.1266L19.7195 19.1854L19.7414 19.2362L19.7559 19.2631L19.7923 19.295L19.8285 19.3183L19.8649 19.3408L19.9157 19.3589L19.9593 19.3778L20.0174 19.3959L20.0537 19.4047L20.09 19.4185L20.1336 19.4279L20.1699 19.4417L20.2135 19.4504L20.2643 19.4642L20.3152 19.478L20.366 19.4918L20.4169 19.5012L20.4605 19.5143L20.5114 19.5281L20.5549 19.5375L20.6058 19.5513L20.6493 19.5651L20.6857 19.5789L20.7365 19.592L20.7729 19.6058L20.8164 19.6196L20.8673 19.6377L20.9108 19.6602L20.9545 19.6791L21.0053 19.7016L21.0416 19.7248L21.0852 19.7474L21.1215 19.7699L21.1579 19.7974L21.1941 19.8207L21.2305 19.8526L21.2668 19.8846L21.2958 19.9209L21.3322 19.9528L21.3539 19.9898L21.383 20.0305L21.4048 20.0668L21.4266 20.1082L21.4484 20.1452L21.4629 20.1859L21.4702 20.2273L21.4847 20.2679L21.492 20.3136L21.4993 20.3594L21.5065 20.4052V20.4552V20.5061V20.5148V20.5649V20.6157ZM18.3249 21.529H18.274H18.2305H18.1869H18.1433H18.0924H18.0489H18.0053H17.9617H17.9108H17.8673H17.8164H17.7729H17.7292H17.6857H17.6348H17.5913H17.5476H17.5041H17.4532H17.4097H17.3661H17.3225H17.2716H17.2281H17.1845H17.1409H17.09H17.0465H16.9956H16.9521H16.9084H16.8649H16.814H16.7705H16.7268H16.6833H16.6324H16.5889H16.5452H16.5017H16.4508H16.4073H16.3636H16.3201H16.2692H16.2257H16.182H16.1312H16.0876H16.0368H15.9932H15.9496H15.906H15.8552H15.8116H15.768H15.7244V21.4833V21.4376V21.3919V21.3468V21.3011V21.2554V21.2096V21.1639V21.1181V21.0724V21.0267V20.9809V20.9352V20.8894V20.8437V20.798V20.7529V20.7072V20.6658V20.6201V20.5743V20.5286V20.4828V20.4371V20.3914V20.3456V20.2999V20.2548V20.2091V20.1634V20.1176V20.0719V20.0261V19.9804V19.9347V19.8889V19.8432V19.7974V19.7517V19.706V19.6602V19.6152V19.5695V19.5238V19.478V19.4322V19.3865V19.3408V19.295V19.2493V19.2035V19.1586V19.1128V19.0671V19.0257V18.9799V18.9342V18.8885V18.8427V18.797V18.7512V18.7055V18.6605V18.6147V18.569V18.5233V18.4775V18.4318V18.386V18.3403V18.2946V18.2488V18.2031H15.768H15.8116H15.8552H15.906H15.9496H15.9932H16.0368H16.0876H16.1312H16.1748H16.2184H16.2692H16.3128H16.3564H16.4H16.4436H16.4872H16.538H16.5816H16.6252H16.6687H16.7196H16.7632H16.8068H16.8503H16.9012H16.9448H16.9884H17.0319H17.0756H17.1264H17.17H17.2135H17.2572H17.308H17.3516H17.3951H17.4388H17.4896H17.5332H17.5767H17.6204H17.6712H17.7075H17.7583H17.802H17.8455H17.8891H17.9399H17.9836H18.0271H18.0707H18.1215H18.1652H18.2087H18.2523H18.3031H18.3467V18.2488V18.2902V18.3359V18.3817V18.4274V18.4681V18.5138V18.5596V18.601V18.6467V18.6924V18.7331V18.7788V18.8246V18.8703V18.9117V18.9574H18.3031H18.2523H18.2087H18.1652H18.1215H18.0707H18.0344H17.9836H17.9399H17.8964H17.8528H17.802H17.7583H17.7148H17.6712H17.6204H17.5767H17.5332H17.4896H17.4459H17.4024H17.3588H17.308H17.2643H17.2208H17.1772H17.1264H17.0828H17.0392H16.9956H16.9448H16.9012H16.8649H16.814H16.7705H16.7268H16.6833H16.6324H16.5889V19.0031V19.0482V19.0939V19.1397V19.1854V19.2268V19.2725V19.3183V19.364V19.4097V19.4555V19.5012H16.6324H16.6833H16.7268H16.7705H16.814H16.8649H16.9084H16.9521H16.9956H17.0392H17.0828H17.1264H17.1772H17.2208H17.2643H17.308H17.3588H17.4024H17.4459H17.4896H17.5404H17.584H17.6275H17.6712H17.722H17.7656H17.802H17.8528H17.8964H17.9399H17.9836H18.0344H18.078H18.1215H18.1652V19.5463V19.5876V19.6334V19.6791V19.7198V19.7655V19.8113V19.8526V19.8984V19.9441V19.9898V20.0305V20.0763V20.122V20.1634V20.2091H18.1215H18.078H18.0344H17.9836H17.9399H17.8964H17.8528H17.802H17.7656H17.722H17.6712H17.6275H17.584H17.5404H17.4896H17.4459H17.4024H17.3588H17.308H17.2643H17.2208H17.1772H17.1264H17.0828H17.0392H16.9956H16.9521H16.9084H16.8649H16.814H16.7705H16.7268H16.6833H16.6324H16.5889V20.2548V20.305V20.3507V20.3964V20.4465V20.4923V20.538V20.5881V20.6339V20.6796V20.7297V20.7754H16.6324H16.6833H16.7268H16.7705H16.814H16.8649H16.9084H16.9521H16.9956H17.0465H17.09H17.1409H17.1845H17.2281H17.2716H17.3225H17.3661H17.4097H17.4532H17.5041H17.5476H17.5913H17.6348H17.6857H17.7292H17.7729H17.8164H17.8673H17.9108H17.9617H18.0053H18.0489H18.0924H18.1433H18.1869H18.2305H18.274H18.3249H18.3685V20.8212V20.8626V20.9076V20.9533V20.9991V21.0404V21.0862V21.1319V21.1733V21.2183V21.264V21.3054V21.3512V21.3962V21.4419V21.4833V21.529H18.3249ZM15.0053 21.529H14.9618H14.9181H14.8673H14.8237H14.7729H14.7293H14.6857H14.6421H14.5913H14.5404H14.4969H14.4532H14.4097H14.3588H14.3153H14.2644H14.2208H14.1772V21.4833V21.4376V21.3919V21.3461V21.3003V21.2546V21.2089V21.1631V21.1174V21.0716V21.0259V20.9802V20.9344V20.8887V20.8429V20.7972V20.7515V20.7057V20.66V20.6142V20.5685V20.5228V20.477V20.4313V20.3855V20.3398V20.2941V20.2483V20.2026V20.1569V20.1111V20.0654V20.0196V19.9739V19.9282V19.8824V19.8367V19.7909V19.7452V19.6995V19.6537V19.6079V19.5622L14.1555 19.5993L14.1264 19.6406L14.1046 19.6769L14.0756 19.7132L14.0538 19.7546L14.0247 19.7909L14.0029 19.828L13.9811 19.8693L13.9521 19.9056L13.9302 19.9419L13.9013 19.9789L13.8794 20.0203L13.8576 20.0567L13.8285 20.093L13.8068 20.1344L13.7777 20.1714L13.7559 20.2076L13.7341 20.249L13.7124 20.2853L13.6833 20.3217L13.6615 20.3631L13.6397 20.4001L13.6107 20.4364L13.5889 20.4777L13.5598 20.5148L13.5381 20.5511L13.509 20.5874L13.4872 20.6288L13.4653 20.6651L13.4364 20.7021L13.4145 20.7435L13.3855 20.7798L13.3636 20.8161L13.3346 20.8575L13.3128 20.8945H13.2983L13.2692 20.8531L13.2475 20.8161L13.2184 20.7754L13.1966 20.7384L13.1676 20.6978L13.1458 20.6607L13.1167 20.6193L13.0949 20.583L13.0659 20.5416L13.0441 20.5053L13.0223 20.464L12.9933 20.4277L12.9715 20.3863L12.9496 20.35L12.9206 20.3086L12.8988 20.2715L12.8697 20.2309L12.8407 20.1939L12.8189 20.1525L12.7899 20.1162L12.768 20.0748L12.739 20.0385L12.7172 19.9971L12.6954 19.9608L12.6663 19.9194L12.6445 19.8831L12.6228 19.8417L12.5937 19.8047L12.5719 19.7641L12.5428 19.727L12.5211 19.6864L12.492 19.6493L12.4702 19.6079L12.4412 19.5717V19.6174V19.6631V19.7089V19.7546V19.8004V19.8461V19.8918V19.9376V19.9833V20.0291V20.0705V20.1162V20.1612V20.2069V20.2534V20.2992V20.3449V20.3899V20.4356V20.4814V20.5279V20.5736V20.6193V20.6643V20.7101V20.7558V20.8023V20.848V20.8931V20.9388V20.9845V21.031V21.0716V21.1174V21.1631V21.2089V21.2546V21.3003V21.3461V21.3919V21.4376V21.4833V21.529H12.3976H12.354H12.3031H12.2596H12.216H12.1724H12.1215H12.078H12.0344H11.9908H11.9399H11.8964H11.8528H11.8092H11.7584H11.7148H11.6712H11.6277H11.5768V21.4833V21.4376V21.3919V21.3468V21.3011V21.2554V21.2096V21.1639V21.1181V21.0724V21.0267V20.9809V20.9352V20.8894V20.8437V20.798V20.7529V20.7072V20.6658V20.6201V20.5743V20.5286V20.4828V20.4371V20.3914V20.3456V20.2999V20.2548V20.2091V20.1634V20.1176V20.0719V20.0261V19.9804V19.9347V19.8889V19.8432V19.7974V19.7517V19.706V19.6602V19.6152V19.5695V19.5238V19.478V19.4322V19.3865V19.3408V19.295V19.2493V19.2035V19.1586V19.1128V19.0671V19.0257V18.9799V18.9342V18.8885V18.8427V18.797V18.7512V18.7055V18.6605V18.6147V18.569V18.5233V18.4775V18.4318V18.386V18.3403V18.2946V18.2488V18.2031H11.6277H11.6712H11.7148H11.7584H11.802H11.8455H11.8891H11.9327H11.9763H12.0271H12.0635H12.1143H12.1579H12.2014H12.2451H12.2886H12.3322H12.3758H12.4194H12.4629H12.5138L12.5356 18.2401L12.5574 18.2807L12.5864 18.317L12.6083 18.3584L12.6301 18.3948L12.6518 18.4361L12.6736 18.4724L12.7027 18.5131L12.7244 18.5501L12.7462 18.5864L12.768 18.6271L12.7899 18.6641L12.8189 18.7048L12.8407 18.7418L12.8625 18.7825L12.8843 18.8188L12.9133 18.8558L12.9351 18.8964L12.9569 18.9327L12.986 18.9741L13.0077 19.0104L13.0295 19.0518L13.0586 19.0881L13.0804 19.1295L13.1022 19.1658L13.124 19.2021L13.1531 19.2428L13.1749 19.2798L13.1966 19.3212L13.2184 19.3575L13.2402 19.3981L13.2692 19.4344L13.291 19.4758L13.3128 19.5121L13.3346 19.4758L13.3565 19.4344L13.3855 19.3981L13.4073 19.3575L13.4291 19.3212L13.4581 19.2798L13.4799 19.2428L13.5017 19.2021L13.5308 19.1658L13.5525 19.1295L13.5743 19.0881L13.6034 19.0518L13.6252 19.0104L13.6469 18.9741L13.676 18.9327L13.6978 18.8964L13.7197 18.8558L13.7414 18.8188L13.7632 18.7825L13.7923 18.7418L13.814 18.7048L13.8358 18.6641L13.8576 18.6271L13.8867 18.5864L13.9084 18.5501L13.9302 18.5131L13.9521 18.4724L13.9811 18.4361L14.0029 18.3948L14.0247 18.3584L14.0465 18.317L14.0756 18.2807L14.0973 18.2401L14.1191 18.2031H14.17H14.2135H14.2572H14.3007H14.3443H14.3879H14.4315H14.475H14.5187H14.5695H14.6058H14.6494H14.7003H14.7438H14.7874H14.831H14.8746H14.9181H14.9618H15.0053H15.0489V18.2488V18.2946V18.3403V18.386V18.4318V18.4775V18.5233V18.569V18.6147V18.6605V18.7055V18.7512V18.797V18.8427V18.8885V18.9342V18.9799V19.0257V19.0671V19.1128V19.1586V19.2035V19.2493V19.295V19.3408V19.3865V19.4322V19.478V19.5238V19.5695V19.6152V19.6602V19.706V19.7517V19.7974V19.8432V19.8889V19.9347V19.9804V20.0261V20.0719V20.1176V20.1634V20.2091V20.2548V20.2999V20.3456V20.3914V20.4371V20.4828V20.5286V20.5743V20.6201V20.6658V20.7072V20.7529V20.798V20.8437V20.8894V20.9352V20.9809V21.0267V21.0724V21.1181V21.1639V21.2096V21.2554V21.3011V21.3468V21.3919V21.4376V21.4833V21.529H15.0053ZM9.73897 20.1583L9.72452 20.1169L9.70997 20.0712L9.68816 20.0305L9.68089 19.9891L9.65908 19.9477L9.64454 19.902L9.63008 19.8606L9.60827 19.8199L9.59373 19.7786L9.57919 19.7372L9.55737 19.6914L9.54292 19.65L9.52838 19.6087L9.50656 19.568L9.49929 19.5266L9.47748 19.4809L9.46294 19.4395L9.44849 19.3989L9.42667 19.3575L9.41213 19.3118L9.39759 19.2704L9.37578 19.229L9.36132 19.2704L9.34678 19.3118L9.32497 19.3575L9.31043 19.3989L9.29588 19.4395L9.28134 19.4809L9.25962 19.5266L9.24508 19.568L9.23053 19.6087L9.20872 19.65L9.19418 19.6914L9.17972 19.7372L9.15791 19.7786L9.14337 19.8199L9.12883 19.8606L9.10702 19.902L9.09247 19.9477L9.07075 19.9891L9.06348 20.0305L9.04167 20.0712L9.02712 20.1169L9.01258 20.1583L8.99086 20.1997H9.03439H9.08529H9.12883H9.17245H9.21599H9.26689H9.31043H9.35405H9.39759H9.44121H9.48475H9.53565H9.57919H9.62281H9.66635H9.71725H9.76078L9.73897 20.1583ZM11.1628 21.529H11.1191H11.0829H11.032H10.9884H10.9448H10.9013H10.8576H10.8141H10.7632H10.7197H10.676H10.6325H10.5889H10.5453H10.5017H10.4509H10.4073H10.3709H10.3201H10.2765L10.262 21.4877L10.2475 21.447L10.2257 21.4056L10.2111 21.3599L10.1966 21.3192L10.1749 21.2778L10.1603 21.2372L10.1458 21.1958L10.124 21.1544L10.1094 21.1138L10.0949 21.0724L10.0804 21.0267L10.0586 20.9853L10.0441 20.9446L10.0295 20.9032H9.97873H9.93511H9.89157H9.84795H9.80441H9.76078H9.71725H9.66635H9.62281H9.57919H9.53565H9.48475H9.44121H9.39759H9.35405H9.31043H9.26689H9.21599H9.17245H9.12883H9.08529H9.03439H8.99086H8.94723H8.90369H8.86007H8.81653H8.7729H8.7221L8.70755 20.9446L8.69301 20.9853L8.6712 21.0267L8.65666 21.0724L8.64212 21.1138L8.62766 21.1544L8.60585 21.1958L8.59131 21.2372L8.57677 21.2778L8.55495 21.3192L8.5405 21.3599L8.52596 21.4056L8.50414 21.447L8.4896 21.4877L8.47506 21.529H8.43152H8.38063H8.33709H8.29346H8.24993H8.19903H8.15549H8.1046H8.06106H8.01743H7.97389H7.923H7.87946H7.83583H7.7923H7.7414H7.69786H7.64697H7.60343H7.5598L7.57435 21.4877L7.59616 21.447L7.6107 21.4056L7.63251 21.3599L7.64697 21.3192L7.66151 21.2778L7.68332 21.2372L7.69786 21.1958L7.71968 21.1544L7.73413 21.1087L7.75594 21.068L7.77048 21.0267L7.78503 20.9853L7.80684 20.9446L7.82129 20.9032L7.84311 20.8575L7.85765 20.8168L7.87219 20.7754L7.894 20.7341L7.91573 20.6934L7.923 20.652L7.94481 20.6063L7.95935 20.5649L7.98117 20.5242L7.99571 20.4828L8.01743 20.4422L8.03197 20.4008L8.05379 20.355L8.06833 20.3136L8.08287 20.273L8.1046 20.2316L8.11914 20.1902L8.14095 20.1496L8.15549 20.1038L8.1773 20.0625L8.19176 20.0218L8.2063 19.9804L8.22811 19.939L8.24265 19.8984L8.26447 19.8526L8.27892 19.8113L8.30073 19.7699L8.31528 19.7292L8.33709 19.6878L8.35163 19.6472L8.36608 19.6058L8.38063 19.56L8.40244 19.5194L8.41698 19.478L8.43879 19.4366L8.45334 19.3959L8.47506 19.3546L8.4896 19.3088L8.50414 19.2682L8.52596 19.2268L8.5405 19.1854L8.56222 19.1447L8.57677 19.1033L8.59858 19.0576L8.61312 19.0162L8.62766 18.9756L8.64939 18.9342L8.66393 18.8935L8.68574 18.8521L8.70028 18.8064L8.7221 18.765L8.73655 18.7244L8.75836 18.683L8.7729 18.6416L8.78745 18.601L8.80926 18.5552L8.82371 18.5138L8.84553 18.4732L8.86007 18.4318L8.88188 18.3904L8.89642 18.3497L8.91088 18.304L8.92542 18.2626L8.94723 18.2212L8.96177 18.1805H9.01258H9.04894H9.09974H9.14337H9.18691H9.23053H9.27407H9.3177H9.36132H9.40486H9.44849H9.49929H9.54292H9.57919H9.63008H9.67362H9.71725H9.76078H9.80441L9.82613 18.2212L9.84067 18.2626L9.86249 18.304L9.87703 18.3497L9.89157 18.3904L9.90611 18.4318L9.92784 18.4732L9.94238 18.5138L9.96419 18.5552L9.97873 18.601L10.0005 18.6416L10.015 18.683L10.0295 18.7244L10.0514 18.765L10.0659 18.8064L10.0877 18.8521L10.1022 18.8935L10.124 18.9342L10.1385 18.9756L10.1603 19.0162L10.1749 19.0576L10.1893 19.1033L10.2111 19.1447L10.2257 19.1854L10.2475 19.2268L10.262 19.2682L10.2838 19.3088L10.2983 19.3546L10.3128 19.3959L10.3274 19.4366L10.3492 19.478L10.3709 19.5194L10.3855 19.56L10.4073 19.6058L10.4218 19.6472L10.4436 19.6878L10.4509 19.7292L10.4726 19.7699L10.4872 19.8113L10.509 19.8526L10.5235 19.8984L10.5453 19.939L10.5598 19.9804L10.5816 20.0218L10.5961 20.0625L10.6107 20.1038L10.6325 20.1496L10.647 20.1902L10.6688 20.2316L10.6833 20.273L10.7051 20.3136L10.7197 20.355L10.7341 20.4008L10.7559 20.4422L10.7705 20.4828L10.7923 20.5242L10.8068 20.5649L10.8286 20.6063L10.8431 20.652L10.8649 20.6934L10.8722 20.7341L10.894 20.7754L10.9157 20.8168L10.9303 20.8575L10.9448 20.9032L10.9666 20.9446L10.9812 20.9853L11.0029 21.0267L11.0174 21.068L11.032 21.1087L11.0538 21.1544L11.0683 21.1958L11.09 21.2372L11.1046 21.2778L11.1264 21.3192L11.1409 21.3599L11.1555 21.4056L11.1773 21.447L11.1917 21.4877L11.2136 21.529H11.1628ZM7.18934 21.1043L7.15307 21.1319L7.12399 21.1544L7.08772 21.182L7.05137 21.2052L7.01501 21.2321L6.97875 21.2554L6.94239 21.2778L6.89885 21.3011L6.8625 21.3236L6.81896 21.3468L6.77534 21.3642L6.73898 21.3875L6.68817 21.4056L6.65182 21.4238L6.60828 21.4419L6.56465 21.4608L6.52112 21.4739L6.48476 21.4877L6.44122 21.5015L6.3976 21.5153L6.35406 21.529L6.31044 21.5385L6.2669 21.5472L6.22327 21.5567L6.17974 21.5653L6.13611 21.5704L6.0853 21.5748L6.0344 21.5792L5.99087 21.5835L5.93997 21.5886L5.88916 21.5929H5.84554H5.79473H5.74383H5.70029L5.6494 21.5886L5.59859 21.5835L5.55496 21.5792L5.51143 21.5748L5.4678 21.5704L5.41699 21.561L5.37337 21.5516L5.3371 21.5429L5.2862 21.5334L5.24994 21.5196L5.19904 21.5109L5.16277 21.4971L5.11915 21.479L5.08288 21.4651L5.03198 21.447L4.99572 21.4289L4.95209 21.41L4.91574 21.3919L4.8722 21.3693L4.83585 21.3468L4.79231 21.3236L4.75595 21.3011L4.71969 21.2778L4.68333 21.2503L4.64698 21.2234L4.61071 21.1958L4.58163 21.1682L4.55254 21.1406L4.51628 21.1087L4.48719 21.0818L4.45093 21.0499L4.42184 21.0172L4.39276 20.9853L4.37095 20.9489L4.34195 20.917L4.32014 20.8807L4.29105 20.8437L4.26933 20.8074L4.24752 20.7711L4.2257 20.7297L4.19662 20.6934L4.18217 20.652L4.16035 20.6106L4.14581 20.57L4.124 20.5286L4.11673 20.4923L4.095 20.4509L4.08773 20.4095L4.07319 20.3689L4.06592 20.3231L4.05138 20.2817L4.04411 20.236L4.03684 20.1953L4.02956 20.1496L4.02229 20.1082L4.01502 20.0625V20.0167L4.00775 19.971V19.9209V19.8752V19.8664V19.8207L4.01502 19.7699V19.7248V19.6791L4.02229 19.6283L4.02956 19.5833L4.03684 19.5375L4.04411 19.4961L4.05865 19.4504L4.06592 19.4047L4.08046 19.364L4.095 19.3183L4.10946 19.2769L4.124 19.2311L4.14581 19.1905L4.16035 19.1491L4.18217 19.1077L4.19662 19.0671L4.2257 19.0257L4.24752 18.9894L4.26933 18.9523L4.29105 18.916L4.31287 18.8797L4.34195 18.8427L4.37095 18.8064L4.39276 18.7701L4.42184 18.7374L4.45093 18.7055L4.47992 18.6735L4.50901 18.6416L4.54536 18.6096L4.57436 18.5828L4.61071 18.5508L4.64698 18.5233L4.68333 18.4957L4.71969 18.4732L4.75595 18.4455L4.79231 18.4223L4.82857 18.3998L4.86493 18.3766L4.90856 18.3541L4.94482 18.3309L4.98845 18.3127L5.03198 18.2946L5.07561 18.2721L5.11188 18.2582L5.1555 18.2445L5.19904 18.2263L5.23539 18.2168L5.27893 18.2031L5.32256 18.1944L5.36618 18.1805L5.40972 18.1711L5.45335 18.1668L5.50415 18.1573L5.54778 18.153L5.59132 18.1486L5.63494 18.1435L5.68575 18.1392H5.73656H5.78019H5.83099H5.88189L5.92543 18.1435L5.97633 18.1486H6.02713L6.07076 18.153L6.12157 18.1624L6.15792 18.1668L6.20873 18.1762L6.25236 18.1849L6.28862 18.1944L6.33225 18.2031L6.37579 18.2125L6.41214 18.2263L6.45577 18.235L6.49203 18.2488L6.53566 18.2626L6.57193 18.2807L6.61555 18.2989L6.65182 18.3178L6.69544 18.3403L6.73898 18.3584L6.77534 18.3817L6.81169 18.4042L6.84796 18.4274L6.89158 18.4499L6.92785 18.4775L6.9642 18.5L7.00056 18.5276L7.03682 18.5552L7.07318 18.5871L7.10945 18.6147L7.08045 18.651L7.05137 18.683L7.02228 18.7193L6.99329 18.7563L6.9642 18.7926L6.93512 18.8246L6.90612 18.8609L6.87704 18.8979L6.84796 18.9299L6.81896 18.9661L6.78988 19.0031L6.76079 19.0395L6.73171 19.0714L6.70271 19.1077L6.67363 19.1447L6.64455 19.181L6.61555 19.213L6.58647 19.2493L6.55011 19.2224L6.51385 19.1905L6.47749 19.1672L6.44122 19.1397L6.40487 19.1172L6.36852 19.0939L6.33225 19.0714L6.28862 19.0482L6.25236 19.03L6.216 19.0119L6.17974 18.9981L6.14338 18.9843L6.09975 18.9705L6.06349 18.9618L6.01259 18.9523L5.96905 18.9436L5.92543 18.9385L5.87462 18.9342L5.82372 18.9299H5.77292H5.72938L5.68575 18.9342L5.64213 18.9385L5.59859 18.948L5.55496 18.9574L5.5187 18.9705L5.47507 18.9843L5.43153 19.0031L5.39518 19.0213L5.35891 19.0438L5.32256 19.0671L5.2862 19.0896L5.24994 19.1172L5.22085 19.1447L5.19177 19.1716L5.16277 19.2035L5.12642 19.2362L5.10461 19.2725L5.08288 19.3045L5.0538 19.3408L5.03198 19.3822L5.01017 19.4185L4.99572 19.4598L4.98118 19.5012L4.95936 19.5419L4.94482 19.5876L4.93755 19.6334L4.93028 19.674L4.92301 19.7248L4.91574 19.7699V19.8156V19.8664V19.8752V19.9209V19.9666L4.92301 20.008V20.0537L4.93755 20.0944L4.94482 20.1358L4.95209 20.1772L4.96663 20.2178L4.98118 20.2548L4.99572 20.2999L5.01744 20.3413L5.03926 20.3826L5.06107 20.4189L5.08288 20.4552L5.11188 20.4923L5.14096 20.5242L5.17004 20.5562L5.19904 20.5881L5.22812 20.6157L5.26448 20.6425L5.30074 20.6702L5.3371 20.6934L5.37337 20.7159L5.41699 20.7341L5.45335 20.7529L5.49688 20.7711L5.54051 20.7849L5.59132 20.798L5.63494 20.8074L5.67848 20.8168L5.72211 20.8212L5.77292 20.8255H5.82372H5.88189L5.92543 20.8212L5.97633 20.8168L6.02713 20.8117L6.07076 20.803L6.1143 20.7936L6.15792 20.7798L6.20146 20.7711L6.24509 20.7529L6.28135 20.7341L6.31771 20.7159L6.35406 20.6978L6.39033 20.6745V20.6295V20.5837V20.538V20.4923V20.4422V20.3964V20.3507V20.305V20.2592H6.33952H6.30316H6.25236H6.20873H6.16519H6.12157H6.07803H6.0344H5.99087H5.94724H5.9037H5.85281H5.80927H5.77292H5.72211V20.2135V20.1721V20.1263V20.0806V20.0349V19.9942V19.9485V19.9027V19.857V19.8156V19.7699V19.7248V19.6791V19.6377V19.592H5.77292H5.81654H5.86008H5.9037H5.95451H5.99814H6.04168H6.0853H6.13611H6.17974H6.22327H6.2669H6.31771H6.36133H6.40487H6.4485H6.4993H6.54293H6.58647H6.63009H6.6809H6.72453H6.76806H6.81169H6.8625H6.90612H6.94966H6.99329H7.0441H7.08772H7.13126H7.17488H7.21842V19.6377V19.6835V19.7292V19.7699V19.8156V19.8613V19.9071V19.9528V19.9986V20.04V20.0857V20.1314V20.1772V20.2222V20.2679V20.3136V20.355V20.4008V20.4465V20.4923V20.538V20.5837V20.6295V20.6702V20.7159V20.7616V20.8074V20.8531V20.8989V20.9402V20.9853V21.031V21.0767L7.18934 21.1043Z" fill="black"/>
<path d="M5.72945 10.6785H7.69793V9.15308H5.72945V6.0398H7.77782V4.51514H4.05872V15.5212H7.80691V13.9958H5.72945V10.6785Z" fill="black"/>
<path d="M19.8212 11.0087V13.4925C19.8212 13.9332 19.6178 14.1372 19.1965 14.1372H18.8842C18.4483 14.1372 18.2449 13.9332 18.2449 13.4925V6.54285C18.2449 6.10287 18.4483 5.89888 18.8842 5.89888H19.1602C19.5888 5.89888 19.7849 6.10287 19.7849 6.54285V8.697H21.4265V6.44846C21.4265 5.08133 20.7728 4.42065 19.4144 4.42065H18.6009C17.2425 4.42065 16.5742 5.0966 16.5742 6.46446V13.5709C16.5742 14.9395 17.2425 15.6155 18.6009 15.6155H19.429C20.7873 15.6155 21.4555 14.9395 21.4555 13.5709V11.0087H19.8212Z" fill="black"/>
<path d="M14.0173 15.5212H15.6881V4.51514H14.0173V15.5212Z" fill="black"/>
<path d="M11.5986 9.40501C11.5986 9.84499 11.3952 10.0497 10.9739 10.0497H10.2838V5.99332H10.9739C11.3952 5.99332 11.5986 6.19735 11.5986 6.63733V9.40501ZM11.2354 4.51514H8.61316V15.5212H10.2838V11.5272H11.2354C12.5938 11.5272 13.2621 10.8513 13.2621 9.4834V6.55894C13.2621 5.19108 12.5938 4.51514 11.2354 4.51514Z" fill="black"/>
<path fill-rule="evenodd" clip-rule="evenodd" d="M8.00293 25.4722H17.5622L12.6809 27.0854L8.00293 25.4722Z" fill="black"/>
</svg>
