<svg width="19" height="18" viewBox="0 0 19 18" fill="none" xmlns="http://www.w3.org/2000/svg">
<path d="M10.9628 17.7653H13.6286C16.0838 17.7653 18.0959 15.7512 18.0959 13.3001V4.8055C18.0959 2.35511 16.0838 0.340332 13.6286 0.340332H10.9047C10.8538 0.340332 10.7957 0.394077 10.7957 0.449256V17.6564C10.7957 17.7116 10.8466 17.7653 10.9628 17.7653ZM14.2824 8.18231C15.263 8.18231 16.0257 8.99907 16.0257 9.92332C16.0257 10.9049 15.2049 11.6658 14.2824 11.6658C13.3018 11.6658 12.539 10.9042 12.539 9.92332C12.4809 8.94389 13.3018 8.18231 14.2824 8.18231ZM8.94345 0.340332H5.12991C2.68198 0.340332 0.662598 2.35511 0.662598 4.8055V13.3001C0.662598 15.7512 2.68198 17.7653 5.12991 17.7653H8.94345C8.9943 17.7653 9.05238 17.7116 9.05238 17.6571V0.449256C9.05238 0.394077 8.9943 0.340332 8.94345 0.340332ZM7.69404 16.3503H5.12991C3.43742 16.3503 2.07906 14.9889 2.07906 13.3001V4.8055C2.07906 3.11673 3.43742 1.75537 5.12991 1.75537H7.63591L7.69404 16.3503ZM3.38656 5.56708C3.38656 6.49278 4.09115 7.20067 5.02093 7.20067C5.95071 7.20067 6.65531 6.49278 6.65531 5.56708C6.65531 4.64283 5.95071 3.93349 5.02093 3.93349C4.09115 3.93349 3.38656 4.64283 3.38656 5.56708Z" fill="#F9FAFB"/>
</svg>
