<svg width="22" height="22" viewBox="0 0 22 22" fill="none" xmlns="http://www.w3.org/2000/svg">
<path d="M3.37628 20.5344V19.8511L4.52394 19.825C6.7249 19.7756 7.553 19.5426 7.90167 18.8739C8.01063 18.6684 8.01782 18.6183 8.01056 18.1573C8.01056 17.832 7.98151 17.5496 7.93066 17.3376L7.8435 17.0145L4.42224 16.9927L1.00824 16.9709L0.783022 16.8715C0.528786 16.7546 0.303623 16.5317 0.165609 16.2594L0.0639038 16.0656V8.93004V1.79381L0.158338 1.61154C0.31088 1.32621 0.499709 1.13892 0.761209 1.00896L1.00824 0.888428H10.8871H20.766L21.042 1.02203C21.3762 1.18031 21.6159 1.4119 21.7539 1.70739L21.8556 1.92303V8.94311V15.9632L21.7393 16.2021C21.6013 16.4816 21.3689 16.6994 21.042 16.8577L20.8096 16.9709L17.2938 16.9833L13.7781 16.9956L13.7128 17.2207C13.5239 17.893 13.4657 18.5544 13.5602 18.8935C13.7636 19.5651 14.7225 19.8359 16.9016 19.8381H17.6643V20.5278V21.2176H10.5239H3.37628V20.5336V20.5344ZM20.1848 8.93004V2.59172H10.9743H1.75636V8.93004V15.2684H10.9743H20.1848V8.93004Z" fill="#F9FAFB"/>
</svg>
