<svg width="27" height="20" viewBox="0 0 27 20" fill="none" xmlns="http://www.w3.org/2000/svg">
<path d="M1.01078 14.5426C0.0301539 15.175 0.357015 16.3766 2.44901 16.9458C4.60639 17.6414 6.9527 17.8308 9.24082 17.4511C9.37157 17.4511 9.50229 17.388 9.56766 17.388V15.2382L7.34487 15.9337C6.49499 16.1863 5.64512 16.2495 4.80251 16.06C4.14876 15.8705 4.27959 15.4908 5.06409 15.175L9.56766 13.6576V11.3175L3.29892 13.4042C2.51442 13.6576 1.7299 14.0366 1.01078 14.5426ZM16.1705 5.05689V11.1912C18.8436 12.456 20.9357 11.1912 20.9357 7.90296C20.9357 4.55156 19.6935 3.03341 16.1052 1.83181C14.2093 1.19943 12.248 0.63094 10.2868 0.251221V18.5264L14.8631 19.8543V4.48768C14.8631 3.79214 14.863 3.28681 15.386 3.4763C16.1052 3.6658 16.1705 4.36135 16.1705 5.05689ZM24.662 13.0884C22.7662 12.456 20.7395 12.2026 18.7782 12.3928C17.7395 12.456 16.7589 12.7086 15.8437 13.0252L15.6475 13.0884V15.554L19.8896 14.0365C20.7395 13.7839 21.5894 13.7207 22.4393 13.9102C23.093 14.0997 22.9623 14.4794 22.1778 14.7952L15.6475 17.1353V19.5385L24.662 16.3134C25.3158 16.06 25.9041 15.7442 26.4271 15.2382C26.8847 14.6058 26.6887 13.7207 24.662 13.0884Z" fill="#F9FAFB"/>
</svg>
