<svg width="25" height="26" viewBox="0 0 25 26" fill="none" xmlns="http://www.w3.org/2000/svg">
<path d="M24.9862 13.0528C24.9862 19.871 19.4511 25.3955 12.6157 25.3955C6.94991 25.3955 2.17753 21.5982 0.717485 16.4172L5.46083 18.3732C5.77317 19.9705 7.19688 21.18 8.88936 21.18C10.8433 21.18 12.4705 19.5675 12.3833 17.5223L16.5891 14.5259C19.1823 14.5905 21.3615 12.4901 21.3615 9.87271C21.3615 7.3047 19.2695 5.21881 16.698 5.21881C14.1194 5.21881 12.0274 7.30979 12.0274 9.87271V9.93227L9.0855 14.1978C8.30826 14.1527 7.55283 14.3669 6.9136 14.7996L0.28894 12.0624C0.797413 5.70668 6.12182 0.710083 12.6157 0.710083C19.4511 0.710083 24.9862 6.23452 24.9862 13.0528ZM8.03954 19.4383L6.52133 18.811C6.80462 19.3904 7.28403 19.8471 7.87967 20.0954C9.21623 20.6522 10.7562 20.0155 11.3156 18.6818C11.5843 18.0348 11.5843 17.3226 11.3156 16.6757C11.0468 16.0288 10.5455 15.5213 9.89905 15.2527C9.25983 14.9841 8.56982 14.9935 7.95965 15.2229L9.52859 15.8698C10.5165 16.2778 10.9814 17.4075 10.5746 18.3928C10.1606 19.3831 9.02743 19.8463 8.03954 19.4383ZM16.698 12.9729C14.9838 12.9729 13.5892 11.5796 13.5892 9.87271C13.5892 8.16579 14.9838 6.77179 16.698 6.77179C18.4051 6.77179 19.7997 8.16579 19.7997 9.87271C19.7997 11.5796 18.4123 12.9729 16.698 12.9729ZM16.698 12.1968C17.991 12.1968 19.0371 11.1513 19.0371 9.86761C19.0371 8.57889 17.991 7.53851 16.698 7.53851C15.4123 7.53851 14.3664 8.58325 14.3664 9.86761C14.3736 11.1513 15.4196 12.1968 16.698 12.1968Z" fill="white"/>
</svg>
