<svg width="24" height="22" viewBox="0 0 24 22" fill="none" xmlns="http://www.w3.org/2000/svg">
<path d="M5.54846 2.01216C5.59931 1.95916 5.66468 1.90834 5.73006 1.8626C7.49518 0.754666 9.52905 0.162231 11.7881 0.162231C13.9019 0.162231 15.8849 0.729283 17.5701 1.71016C17.6936 1.77841 18.0278 2.002 18.2021 2.20311C16.5677 0.464971 11.7808 4.19755 11.7808 4.19755C10.1247 2.96038 8.5993 2.1189 7.46614 1.81687C6.51457 1.56494 5.86081 1.7762 5.54846 2.01216ZM20.0472 3.65377C19.9963 3.60077 19.9455 3.5521 19.8946 3.49619C19.4806 3.05912 18.9794 2.95532 18.5218 2.98073C18.1005 3.10997 16.1828 3.77863 13.8148 5.94077C13.8148 5.94077 16.4806 8.44709 18.1149 11.0107C19.742 13.5722 20.7227 15.5877 20.1198 18.3808C22.0084 16.3754 23.0544 13.7631 23.0471 11.0514C23.0471 8.19803 21.914 5.59521 20.0472 3.65377ZM15.9794 12.1034C14.9407 10.9802 13.8656 9.88752 12.7615 8.82823C12.4491 8.53055 12.1222 8.21837 11.7736 7.89529C11.7736 7.89529 11.2578 8.39845 10.5823 9.05915V9.05693C9.71788 9.90277 8.59927 11.0035 7.97457 11.6489C6.8632 12.7924 3.68887 16.3834 3.51454 18.3982C3.51454 18.3982 2.8027 16.8023 4.35717 13.1177C5.36685 10.7058 8.42494 7.0923 9.70338 5.91321C9.70338 5.91321 8.5339 4.67314 7.07386 3.81423L7.05932 3.81131C7.05932 3.81131 7.04475 3.79899 7.02296 3.78592C6.31837 3.37934 5.54845 3.06421 4.80753 3.02137C4.05209 3.07437 3.57262 3.61092 3.57262 3.61092C1.61137 5.6206 0.521825 8.28663 0.529089 11.0543C0.529089 17.0695 5.57023 21.9434 11.7881 21.9434C15.0932 21.9434 18.0568 20.5683 20.1198 18.3778C20.1198 18.3757 19.8801 16.9396 18.3692 14.8791C18.0133 14.3984 16.713 12.8941 15.9794 12.1034Z" fill="#F9FAFB"/>
</svg>
